<?xml version="1.0" encoding="UTF-8"?>
<svg version="1.1" viewBox="0 0 2000 2000" width="500" height="500" xmlns="http://www.w3.org/2000/svg">
<path transform="translate(1022,665)" d="m0 0 7 1 18 10 24 14 19 12 18 10 19 11 11 7-2 4-10 7-48 28-45 26-8 5-5-1-13-8-25-14-16-10-26-15-29-17-1-4 10-7 24-13 41-24 25-14z" fill="#1D709D"/>
<path transform="translate(1062,1708)" d="m0 0h21l67 1 49 2 63 4 23 3 14 3 9 1-1 2-17 3-28 4-50 5-57 3-73 2h-143l-91-3-35-3-51-6-13-3-3-1 2-4 11-3 24-3 80-4 75-2z" fill="#1991D3"/>
<path transform="translate(1019,1105)" d="m0 0 11 6 18 10 12 6-3 3-18 13-16 10-16 8-24 13-26 13v53l-1 13 17 2 6 1 1-38 1-8 11 7 17 10 4 3 1 10v92l-1 7-5-1-9-6-28-15-22-12-17-10-14-8-1-1v-106l2-2 9 5 14 6 10 1 1-2-2-2v-3l-8-7-15-11v-2l15-9 10-7 19-12 19-11 11-7 12-8z" fill="#1B384D"/>
<path transform="translate(964,545)" d="m0 0h1l1 27-1 96-14 9-28 15-12 6-23 13-14 8-5 3h-4l-1-3-1-42v-77l7-2 12-5 19-10 13-8 29-17 18-11z" fill="#1B374C"/>
<path transform="translate(1535,715)" d="m0 0h20l15 5 11 6 13 11 5 8 5 12 2 8v18l-4 15-7 14-9 9-15 10-18 8h-18l-12-5-11-6-12-9-8-11-6-13-3-11v-12l3-16 5-12 9-10 9-8 16-8zm2 43-1 4 8 9 1 2h2v-11l-6-4z" fill="#1891D4"/>
<path transform="translate(1085,548)" d="m0 0 6 2 24 13 23 13 42 24 5 4v115l-2 2-14-9-16-8-17-9-19-11-26-14-6-4z" fill="#1B374C"/>
<path transform="translate(1395,613)" d="m0 0h19l9 2 18 8 12 10 6 9 4 10 2 12v12l-3 12-9 17-7 9-8 7-15 8-10 3-19-1-10-3-14-7-9-8-7-10-5-10-2-11v-18l1-9 5-10 7-7 6-9 13-9 11-6zm9 48 1 13 2 3v-15z" fill="#1B374C"/>
<path transform="translate(1127,1176)" d="m0 0h1l1 107-4 4-14 8-28 15-10 6-21 12-17 11-3 2-1-3-1-38-1-70 20-11 66-36 8-4z" fill="#1B374B"/>
<path transform="translate(1297,546)" d="m0 0h3l1 21 1 85-3 3-42 22-29 15-12 7-6 3-6 4-1-1v-106l24-12 19-12 19-11 24-13z" fill="#1B374B"/>
<path transform="translate(749,544)" d="m0 0 5 1 16 8 27 14 8 4 1 1v17l-1 13 4 7 8 3 9 2-1-10v-18l5-1 14 7 2 3 1 15-2 99-5-2-10-7-26-15-13-8-27-14-16-7-1-38 1-65z" fill="#1B384C"/>
<path transform="translate(1130,381)" d="m0 0 1 4v101l-10 7-13 7-22 13-12 7-11 6-21 12-7 5h-1l-1-11-1-69-1-27 8-5 30-16 19-10 24-13 17-10z" fill="#0A3859"/>
<path transform="translate(919,385)" d="m0 0 5 1 23 12 21 12 16 8 26 14 5 2 1 2-1 106-2 1-13-8-22-12-23-13-22-12-13-8-1-1z" fill="#1791D4"/>
<path transform="translate(1202,925)" d="m0 0 4 1v219l-1 311 5 9 1 7-4 11-5 5-6 2h-9l-7-6-3-6v-10l6-9 7-5-1-30-1-111v-77l-2-185v-119l9-4z" fill="#1B3A50"/>
<path transform="translate(1195,476)" d="m0 0 10 5 13 8 32 19 18 11 10 6 9 4 2 1v2l-15 8-22 12-16 9-17 9-8 5-16 8-9-1-10-4-16-8-18-10-13-8-26-15-5-3v-2l23-12h6l9 6 13 8 5 1-2-6-9-11-7-7 3-3 26-14 14-8 13-8z" fill="#1B384C"/>
<path transform="translate(1021,313)" d="m0 0 5 1 19 11 11 6 42 23 22 11-1 3-12 6-10 6-13 8-28 15-8 4-21 12-7-1-9-6-21-11-14-8-28-15-10-6-8-4 4-4 21-11 20-12 24-14 19-12z" fill="#1791D3"/>
<path transform="translate(1265,889)" d="m0 0h4v338l1 223 1 22-2 7-4 2h-10l-3-6-1-7 1-9v-140l-1-260v-145l-1-14-1-4 5-3z" fill="#1B3A50"/>
<path transform="translate(661,609)" d="m0 0 9 3 10 4 15 8 10 7 8 5 2 10 1 13v31l-2 10-8 11-8 6-12 6-13 3-14-2-11-4-14-9-10-9-4-6-4-10-1-5v-30l3-9 6-10 8-7 10-6zm9 48-1 2h3v-2zm-2 8v5h1v-5zm0 6 2 2v-2z" fill="#1E709D"/>
<path transform="translate(1233,908)" d="m0 0 4 1 1 539-2 2h-14l-1-1-1-271-1-211-1-54 9-3z" fill="#1B374C"/>
<path transform="translate(482,1106)" d="m0 0h15l13 4 9 5 10 9 6 9 6 14 1 5v13l-2 9-6 14-11 12-10 6-14 5-5 1h-11l-16-4-9-5-6-5-7-10-4-8-3-13v-18l4-13 6-9 6-7 11-8 12-5z" fill="#1B384C"/>
<path transform="translate(627,737)" d="m0 0h3v100l-15 7-20 10-21 12-10 6-16 10-5 2-1-74v-25l8-4 18-10 46-26z" fill="#1B374C"/>
<path transform="translate(438,739)" d="m0 0 16 8 28 15 36 20 8 4v84l-1 13-5-2-10-7-24-13-22-12-24-12-1-1-1-24z" fill="#1B384C"/>
<path transform="translate(666,1065)" d="m0 0 5 1 21 14 6 5v2l-8 5v1l7-1-6 7 10-4 7-4 16 7 10 6 21 11v3l-10 6-11 7-10 6-54 27-27-14-11-7v-3l8-6 2-2h-9l-8 4h-2v2l-8-2-26-14 1-4 16-11 17-11 17-10 12-10 9-7z" fill="#1B394E"/>
<path transform="translate(532,676)" d="m0 0 5 1 20 12 20 11 31 19 9 6-1 2-16 8-23 13-41 22-7-1-19-10-39-22-17-8-5-3 5-4 22-12 23-13 25-15z" fill="#1B374C"/>
<path transform="translate(1502,861)" d="m0 0 3 1-1 94-18 10-12 7-11 6-18 10-19 11-4 2-2-25v-68l5-5 9-4 28-15 13-8 20-11z" fill="#1B374C"/>
<path transform="translate(1528,1257)" d="m0 0h13l14 2 12 4 12 7 11 9 9 11 8 16 4 13 1 5v22l-4 15-4 9-6 10-7 7-6 7-10 7-12 6-16 4h-22l-13-3-17-8-10-8-9-8-9-13-4-10-4-16v-24l6-20 7-11 9-10 11-10 14-8 13-4zm4 19-16 3-14 6-11 9-7 9-4 8-3 16v11l4 18 6 11 8 10 10 8 12 6 7 2h21l14-4 11-6 11-9 7-11 5-15 1-5v-13l-3-14-5-12-7-9-9-8-12-7-10-3z" fill="#1B384D"/>
<path transform="translate(1067,799)" d="m0 0h3l1 20 1 63v91l-5 6-12 5-13 8-11 7-2-1-1-11-1-51v-60l1-55 8-5 18-10z" fill="#1B384D"/>
<path transform="translate(524,489)" d="m0 0h21l15 4 16 8 12 9 10 10 7 11 6 18 1 7v21l-3 12-7 16-8 10-12 12-7 6-10 5-14 5-6 1h-22l-15-4-16-8-11-8-8-8-9-14-6-15-2-10v-22l2-11 9-20 9-11 7-7 12-8 16-6zm-2 19-16 5-10 6-9 8-8 14-4 10-2 12v9l3 13 7 14 9 10 7 6 16 8 6 2 15 1 20-4 12-6 11-9 9-11 5-14 2-16-2-14-4-13-6-10-8-8-12-7-12-4-10-2z" fill="#1B394E"/>
<path transform="translate(1015,1400)" d="m0 0h12l13 4 11 7 5 4 7 10 4 10 1 5v18l-3 11-7 13-7 8-10 6-17 6h-10l-11-4-11-6-11-10-8-13-3-15v-9l4-16 8-12 9-8 14-7z" fill="#1B374C"/>
<path transform="translate(1321,864)" d="m0 0 4 1 23 12 24 13 23 13 8 4 1 1v91l-2 1-24-13-20-11-18-11-17-9-1-44-1-18z" fill="#1E709E"/>
<path transform="translate(761,1129)" d="m0 0h1v88l-8 5-11 6-44 26-20 12-3 1v-88l2-3 9-4 23-12 14-7 21-13z" fill="#1B374B"/>
<path transform="translate(1016,673)" d="m0 0 6 1 2-1h8v2l6 1 7 4h5l4 8 1 3-2 7-6 7-8 7-12 11-5 6-4 2-6 10-10 13-3 6-3 3v8l2 3v7h-2l-1 3-16-9-25-15-26-15-18-11v-3l10-7 24-13 41-24 21-12 5 1z" fill="#1790D3"/>
<path transform="translate(1370,1073)" d="m0 0h6l11 7 18 10 5 5-9 3-6 4-5 5h-2l1 2 17-8 7-4 8 2 21 11 17 11-4 3-16 9-20 12-19 11-13 8-4 3-5-2-7-4-16-9-13-10-1-5-5 2-10-5-13-8-9-5-4-2 1-4 19-11 26-16 22-14z" fill="#1B384C"/>
<path transform="translate(1409,803)" d="m0 0 5 1 23 12 16 8 24 13 11 8 2 2-1 4-16 9-19 12-32 16-7 4h-5l-7-4-16-8-23-13-14-8-16-8v-2l16-10 13-8 26-15 17-11z" fill="#1B374C"/>
<path transform="translate(578,1135)" d="m0 0 7 3 23 11 21 12 16 8 15 8v88l-5-1-24-13-17-10-31-15-6-3-1-4 1-80z" fill="#1B374C"/>
<path transform="translate(1289,1134)" d="m0 0 7 2 17 10 26 16 27 15 6 3 1 1 1 24v51l-1 11-5-1-8-5-17-9-19-12-29-15-5-3v-52l-1-23z" fill="#1A384D"/>
<path transform="translate(1468,1133)" d="m0 0h2v90l-6 5-21 11-16 8-19 11-14 10-4 3-1-15v-75l18-10 18-11 26-15 14-9z" fill="#1B374C"/>
<path transform="translate(1408,444)" d="m0 0 18 1 12 3 16 8 11 9 7 9 7 15 3 13v20l-4 13-7 13-9 11-6 7-10 7-16 6-6 1h-17l-16-4-12-5-10-7-6-5-7-10-6-13-3-14v-22l3-12 8-16 6-8 12-9 17-8zm-5 19-13 4-11 7-7 8-5 11-3 13 1 14 4 12 5 10 8 8 16 8 10 3h13l12-3 14-9 7-7 6-10 3-9 1-12-3-15-8-16-7-7-11-7-10-3z" fill="#1B384D"/>
<path transform="translate(875,1173)" d="m0 0 6 2 12 5 1 11 1 76 1 122 1 99-2 6-4 2-9-2-6-6v-59l-2-79-1-104v-54z" fill="#1C3A4E"/>
<path transform="translate(832,1152)" d="m0 0 5 2 16 8 1 1v278l-5 8h-2v2h-2l-6-7-7-5-1-6 1-16v-90l-1-174z" fill="#1B384D"/>
<path transform="translate(848,474)" d="m0 0 11 6 12 7 16 8 17 8 7 3v3l-15 10-16 9-33 17-26 13-9 2-13-9-13-8-25-15 4-4 16-9 17-10 13-8 21-12 12-8z" fill="#1B384D"/>
<path transform="translate(791,1128)" d="m0 0 5 1 12 7 2 2 1 62 1 35v145l-3 15 8 9 2 5v8l-3 8-7 6h-9l-10-6-4-5-2-9 4-8 7-7-1-7-1-8-1-106-1-42-2-36v-53l1-15z" fill="#1B384D"/>
<path transform="translate(887,377)" d="m0 0h6l4 5 1 5-5 6-59 31-15 9-19 11-21 11-21 13-16 11-6 5-2 7 12-3 20-8 22-12 21-12 16-9 11-7 26-14 22-11 8-2 6 6-1 7h-2v2l-19 10-16 9-16 8-11 6-24 14-16 8-28 15-30 16-7 5-1-2 3-12 1-6v-14l-2-12v-6l9-7 20-12 12-7 16-8 19-10 13-8 26-14 22-12 9-5 9-6z" fill="#1A3A50"/>
<path transform="translate(729,920)" d="m0 0h2v73l-18 10-31 20-22 15-4 4h-2v-79l4-4 16-8 13-7 17-10 21-11z" fill="#1B374B"/>
<path transform="translate(538,1255)" d="m0 0h10l14 4 9 5 7 9 4 8 3 17-1 11-5 12-9 10-16 8-6 1h-9l-10-2-11-7-7-8-6-11-2-7v-18l4-11 8-10 9-6 9-4z" fill="#1B374C"/>
<path transform="translate(1370,626)" d="m0 0 1 3 13-2 5 1 18 2 1 1 10 1v4l-1 4 1 5-1 2h-2l-1 4-4 8h-2l-1 3-3-1 3 16 1 17v36l5 1v1l-19-1-10-3-14-7-9-8-7-10-5-10-2-11v-18l1-9 5-10 7-7 6-9z" fill="#1D7BB0"/>
<path transform="translate(1170,1092)" d="m0 0 3 1 1 27v267l-1 1h-15l-2-4v-42l-1-33v-175l1-12-4-15v-7z" fill="#1B3A50"/>
<path transform="translate(819,1713)" d="m0 0h28l14 1h23l1 1h26l3 2v-2h9l6 2 10-1 13 1 6-1 12 3 6 2 12 1 7 3v1l-11 2-2 5-1 1-7 1 1 1 2 1 1 4h-39l-91-3-35-3-51-6-13-3-3-1 2-4 11-3 24-3z" fill="#1F719E"/>
<path transform="translate(982,802)" d="m0 0 5 1 16 9 4 7 1 16 3 126 1 34-6-2-15-9-7-5-2-10z" fill="#1D709D"/>
<path transform="translate(1317,1263)" d="m0 0 6 1 9 5 1 1v197l-1 7-3 4 6 2 5 6 2 6v10l-3 8-8 7-2 1h-8l-7-4-4-5-2-5-1-9 2-8 5-6 7-4h2l-6-7-1-13v-183z" fill="#1B3C52"/>
<path transform="translate(1611,1011)" d="m0 0h3l1 2 2 27v37l-2 4-11 8-18 10-27 14-6 4v-68l3-5 20-11 25-15z" fill="#1B374C"/>
<path transform="translate(1019,1105)" d="m0 0 11 6 18 10 12 6-3 3-18 13-16 10-16 8-24 13-26 13-1 5-4-2 1-2-2-2v-3l-8-7-15-11v-2l15-9 10-7 19-12 19-11 11-7 12-8z" fill="#1B384C"/>
<path transform="translate(1074,1140)" d="m0 0 6 1 15 9 12 6 10 7v3l-13 5-14 8-8 5-44 24-10 6-3 2-6-1-10-7-19-10-4-2 5-5 13-9 45-30 16-8z" fill="#1B384C"/>
<path transform="translate(1530,583)" d="m0 0h17l13 4 10 5 11 10 8 14 3 9 1 11-2 13-5 12-8 11-9 9-9 4-9 2h-21l-16-4-10-6-7-9-7-15-2-14 1-17 5-12 6-9 8-8 12-7zm2 16-14 7-7 8-5 10-1 4v17l3 9 8 9 14 9 9 2 13-3 11-6 8-7 5-9 2-9v-11l-4-10-6-9-8-7-10-4z" fill="#1B3A50"/>
<path transform="translate(1588,733)" d="m0 0 4 2 6 8 6 14 2 8v18l-4 15-7 14-9 9-15 10-18 8h-3l-2-8v-29l1-36 3-6 5-2v-2l15-9 11-7 4-5z" fill="#1B374B"/>
<path transform="translate(1530,1299)" d="m0 0h11l9 2 10 6 6 8 6 17v10l-4 10-6 8-9 6-8 4-9 2h-10l-9-3-8-7-6-9-5-14 1-10 5-12 6-8 9-7 5-2z" fill="#1A384C"/>
<path transform="translate(917,1312)" d="m0 0 4 1 14 6 2 3-1 27 1 62 1 24v69l-6 26-3 5-6 4h-5l2-15v-10l-2-6-1-60-1-127v-8z" fill="#1B394E"/>
<path transform="translate(770,1234)" d="m0 0h2l1 18 1 144 2 31v10l-1 2-13 2-7-1-2-6v-189l9-6z" fill="#1B394E"/>
<path transform="translate(1297,871)" d="m0 0 4 1 1 218-5 4-7 4-5-1-1-4-1-25-1-192 9-3z" fill="#1B394D"/>
<path transform="translate(1018,570)" d="m0 0h14l12 4 6 4 7 9 3 11v10l-2 11-7 11-8 7-12 5h-12l-13-5-7-6-5-10-4-12 1-9 5-14 5-7 7-5z" fill="#1B384C"/>
<path transform="translate(1130,381)" d="m0 0 1 4v101l-10 7-13 7-22 13-12 7-11 6-7 3-2-5 2-7v-14l4-8 3-3 4-8 5-5 16-22h2l2-4 5-6 2-4h2l2-4 2-2 5 1 8 3h4l1 3-1 14 1 3 3 1 1-3h2l-1-63-9 7-9 3h-7l-8-3v-2l26-14z" fill="#1A374B"/>
<path transform="translate(1134,761)" d="m0 0h2l1 177-10 7-9 5-3-1-1-32v-115l1-31 18-9z" fill="#1B384D"/>
<path transform="translate(1481,1014)" d="m0 0 4 2 11 7 23 12 17 8 2 2v66l-2 1-16-8-26-14-10-7-3-3-1-18v-45z" fill="#1B394F"/>
<path transform="translate(1101,780)" d="m0 0h3v177l-3 4-14 6h-3l-2-10-1-112v-54l16-8z" fill="#1B384D"/>
<path transform="translate(1160,1017)" d="m0 0 3 1v54l-11 8-18 10-27 14-5 3h-3v-56l8-6 17-9 18-10 16-8z" fill="#1B384D"/>
<path transform="translate(1103,1323)" d="m0 0h2l1 17 1 37v56l-1 33-1 67-1 7-2 1h-12l-2-2v-69l1-40v-36l-2-44-1-13-1-4 15-8z" fill="#1B394E"/>
<path transform="translate(421,969)" d="m0 0 6 1 4 2 3 9v2h9l13 5 23 13 24 13 28 15 34 20 23 11 17 9 11 7-1 4-9 5-7-1-28-13-24-13-17-10-27-14-23-13-23-12-14-9-8-7-20-3-5-5-1-5 2-5 5-4z" fill="#1B394E"/>
<path transform="translate(1547,971)" d="m0 0 8 1 19 10 15 10 12 10 5 3-3 3-19 7-17 7-14 8-4 3-4-1-17-10-23-11-11-5 1-3 14-10 21-13z" fill="#1A394E"/>
<path transform="translate(786,895)" d="m0 0 8 1 6 3 1 1v209l-6-2-10-5-1-1-1-84v-39l1-58 1-24z" fill="#1D719E"/>
<path transform="translate(1347,921)" d="m0 0 13 2 10 4 10 5 10 2 1 3 4 1 1 4 3 1 4 9 1 47-2 1-24-13-20-11-18-11-6-3-1-5 1-1-1-11-1-6 1-9 4-6 5-1 5 1z" fill="#1A374B"/>
<path transform="translate(754,878)" d="m0 0 8 1 7 4v211l-5-1-10-6-1-1-1-9v-149l1-49z" fill="#1E709E"/>
<path transform="translate(881,345)" d="m0 0 6 2 5 5-1 5-6 5-14 6-22 12-30 16-20 12-18 11-10 6-12 6-10 6-18 13-8 7-5-2-10-9-5-4-6-3 1-3 17-9 4-3 15 1 21-10 22-13 16-9 14-9 15-8 16-8 20-11 13-8z" fill="#1D709E"/>
<path transform="translate(1285,1245)" d="m0 0 9 1 6 3 1 6 1 194-5 5h-8l-4-4-1-7v-179z" fill="#1B3C52"/>
<path transform="translate(818,913)" d="m0 0h7l7 3 1 7v202l-5-1-12-6-1-1 1-200z" fill="#1D709E"/>
<path transform="translate(848,932)" d="m0 0h7l9 2 2 2-1 14-1 63v128l-5-1-11-5-1-1v-189z" fill="#1F73A1"/>
<path transform="translate(949,783)" d="m0 0 6 2 10 5 1 2 1 11 1 33v59l-1 54-1 19-7-1-9-4-1-1-1-32v-144z" fill="#1991D4"/>
<path transform="translate(707,635)" d="m0 0 6 1 2 10 1 13v31l-2 10-8 11-8 6-12 6-13 3-9-1-1-5v-7l3-7 1-7 1-3 1-30 1-6 6-5 26-14z" fill="#1B374B"/>
<path transform="translate(525,528)" d="m0 0h18l10 4 9 6 7 10 4 9v19l-7 14-7 7-10 6-10 3h-16l-11-4-9-7-6-10-2-5v-23l3-10 7-9 10-7zm3 15-6 3-5 5-4 6-1 4v14l4 6 8 7 3 1h11l8-4 6-7 4-10-1-9-6-8-8-7-3-1z" fill="#1A394E"/>
<path transform="translate(916,762)" d="m0 0 5 2 12 7 1 83v100l-5-1-9-4-4-2-1-68v-64z" fill="#2073A0"/>
<path transform="translate(1008,1023)" d="m0 0 2 1v59l-6 4-13 6-20 11-12 8h-2l-2-48v-12l3-3 11-6 28-15z" fill="#1B384C"/>
<path transform="translate(1595,1121)" d="m0 0h7l8 3 5 6 1 2-1 9-4 6-6 5-9 3h-5l-5-4-4-6 2 10 4 1v3l-18 10-17 10-10 7-27 15-13 10-10 5-3-12-1-10 8-6 18-11 19-13 14-8 11-6h2l2-5 11-9 7-3 4-5 8-6z" fill="#1B384D"/>
<path transform="translate(1134,1307)" d="m0 0h4l1 39 1 87 2 57v30l-4 3-8 1-3-2-1-5-2-81-1-77v-45l9-6z" fill="#1B394E"/>
<path transform="translate(885,1021)" d="m0 0 5 1 19 9 18 10 13 7 1 2 1 40v16l-5-1-11-7-22-12-18-10-1-1z" fill="#1D709E"/>
<path transform="translate(641,857)" d="m0 0 5 1 20 13 8 4v2l-16 11-30 20-18 11-12 7-8-4-20-13-4-3v-2l23-13 10-7 25-15 14-9z" fill="#1B384D"/>
<path transform="translate(1031,1024)" d="m0 0 9 3 19 9 22 12 2 3 1 18v41h-3l-20-12-29-14z" fill="#1B394E"/>
<path transform="translate(1202,729)" d="m0 0h4l1 59v109l-9 6-5 2h-3l-1-12-1-37v-119l5-4z" fill="#1B394F"/>
<path transform="translate(1172,742)" d="m0 0 3 1 1 172-12 6-5 1-1-5-1-53v-115l10-5z" fill="#1B384D"/>
<path transform="translate(1298,680)" d="m0 0h2l1 16v151l-15 6h-2l-1-4-1-24v-138l12-5z" fill="#1B3B51"/>
<path transform="translate(1266,697)" d="m0 0h2l1 6 1 158-4 4-10 5h-3l-1-2-1-40-1-86v-35l2-4z" fill="#1D3B50"/>
<path transform="translate(733,1257)" d="m0 0h3l-1 97-1 54-5 5-10-2-4-3-1-54v-85l8-5 10-6z" fill="#1B3B51"/>
<path transform="translate(486,1128)" d="m0 0 11 1 8 3 8 7 6 12 1 4v8l-2 9-8 11-12 6-5 1-13-1-8-4-9-8-5-11v-11l5-12 3-4 2-4 8-5z" fill="#1B79AE"/>
<path transform="translate(414,1012)" d="m0 0 8 1 14 8 19 9 33 18 23 12 21 12 39 20 12 7-4 4-14 4-11-4-19-10-44-24-23-13-28-15-14-7-15-4-2-3 1-9z" fill="#1B394E"/>
<path transform="translate(1234,713)" d="m0 0h3l1 131 1 36-4 3-10 4h-3l-1-4-1-26-1-135 3-3z" fill="#1B384D"/>
<path transform="translate(929,520)" d="m0 0 8 1 11 6 4 5-12 9-20 12-14 8-20 11-16 8-7 3-9-1-22-4 2-4 14-11 19-12 14-8 32-16z" fill="#1B394E"/>
<path transform="translate(688,886)" d="m0 0 5 1 5 4 18 10 6 4v2l-13 7-20 12-29 15-13 7-7-2-18-10-4-2 2-4 20-13 17-11 16-11z" fill="#1B384D"/>
<path transform="translate(1328,668)" d="m0 0h3l1 2 1 23v91l1 20 3 17-1 4-16 9-3-1-1-4-1-156 2-3z" fill="#1D3B50"/>
<path transform="translate(1406,482)" d="m0 0h16l10 5 7 8 3 8 1 12-2 9-7 9-11 7-6 2h-8l-7-2-10-7-5-7-2-8v-12l2-9 4-6 7-6z" fill="#1B384D"/>
<path transform="translate(1086,406)" d="m0 0 2 1v2h2v11l-12 24-7 9-10 13-12 15h-2l-1 4-6 15-1 6h-2l1 13-2 5h-1l-1 8h-1l-1-69-1-27 8-5 30-16z" fill="#1A384D"/>
<path transform="translate(1098,984)" d="m0 0 7 1 16 8 14 6 12 7v3l-54 27-6-1-27-15-10-6v-3l16-8 21-12z" fill="#1A394E"/>
<path transform="translate(1022,665)" d="m0 0 7 1 18 10 24 14 5 4v3l4 1 1 4h-2v3h-3l-2 4h-2l-3 4-6 3-10 6-8 8-5 4-7 8-8 9-7 13-1 6h-2v21l3 4-1 2-21-12v-4h2l-1-7-2-3v-8l2-3h2l2-6 12-16 5-8 5-3 7-8 10-9 8-7 5-6 1-8-3-4-2-4-6-1-8-4-3-1v-2l-2 1h-7l-5 1v-2l-7 4h-4l1-3z" fill="#1B7AAF"/>
<path transform="translate(740,682)" d="m0 0 9 1 19 11 26 17 23 12 26 14 42 22 10 5-1 14-7-1-23-11-44-24-25-13-21-12-24-13-12-7v-9z" fill="#1D719F"/>
<path transform="translate(1059,334)" d="m0 0 5 1 19 11 15 8 22 11-1 3-12 6-10 6-13 8-28 15-8 4-21 12-3-1 7-11 9-12 5-8 5-12 8-16 5-5 4-6v-7l-3-2v-2l-5-2z" fill="#1A7AAF"/>
<path transform="translate(1159,402)" d="m0 0 7 1 7 5 7 8 20 12 14 10 24 14 17 10 11 6 5 5 8 2 14 7 6 7v7l-2 5-9-3-10-5-11-7-16-8-18-10-15-9-21-13-12-8-5-4-21-10-7-6-1-6 3-7z" fill="#1B394E"/>
<path transform="translate(678,455)" d="m0 0 9 1 12 4 13 7 4 6 2 9v19l-3 13-3 5-2 1-14-1-12-5-9-8-7-12-2-10v-8l3-12 7-8z" fill="#1891D4"/>
<path transform="translate(1221,1713)" d="m0 0h11l39 3 14 2 14 3 9 1-1 2-17 3-28 4-50 5-33 2h-18v-2h-4l-2-3-9-1-3-2-1 2-4-1 1-2 7-4v-2l-8 4-4-3v-3l11-1h10l10-1 13-1 28-3 6-1z" fill="#21729F"/>
<path transform="translate(727,829)" d="m0 0 9 1 13 4 35 17 29 15 22 12 29 15 13 8 11 6 7 4v16l-2 1-11-6-25-15-25-14-28-14-19-10-26-14-17-10-12-9-3-3z" fill="#1B3A4F"/>
<path transform="translate(607,943)" d="m0 0 4 2 5 5 20 11 2 3v75l-3 1-23-12-8-6-2-2 1-9 1-6 2-56z" fill="#1B394E"/>
<path transform="translate(940,983)" d="m0 0 10 4 23 12 16 8 5 3-1 3-18 10-24 13-7-3-17-10-19-10-10-5 4-4 28-15z" fill="#1D709E"/>
<path transform="translate(732,801)" d="m0 0 11 2 18 8 31 15 19 10 30 15 19 10 27 14 8 5v13l-2 1-12-5-22-11-22-12-26-13-18-10-19-9-22-12-21-12-1-1 1-7z" fill="#1A3A50"/>
<path transform="translate(735,775)" d="m0 0 10 1 10 3 38 19 23 11 27 14 30 16 15 9 7 4v12l-5-1-23-10-16-8-29-15-20-11-42-21-22-12-5-3z" fill="#1A3B51"/>
<path transform="translate(1378,664)" d="m0 0 5 1 13 6h7l1-2 3 8 1 17v36l5 1v1l-19-1-10-3-14-7-3-9-1-4h-2l-1-14 1-15 2-5 1-6 1 3 6-4z" fill="#1E709D"/>
<path transform="translate(736,715)" d="m0 0 6 1 25 12 19 10 43 21 42 22 19 10 4 2v12l-7-1-16-7-19-10-92-46-23-10-2-2v-11z" fill="#0B5D8C"/>
<path transform="translate(736,746)" d="m0 0 8 1 33 15 92 46 19 10 7 5v12l-10-3-23-11-19-10-34-17-23-11-36-18-14-6-2-4z" fill="#1A3B51"/>
<path transform="translate(693,1283)" d="m0 0h2l1 7 1 55 1 28v22l-9 3-10-1-4-4v-100l14-7z" fill="#1B394E"/>
<path transform="translate(559,920)" d="m0 0 12 7 9 6 7 5 1 6 2 65 1 5-6-2-28-15-1-3 1-6 1-67z" fill="#1B394E"/>
<path transform="translate(446,943)" d="m0 0 6 1 43 22 17 10 13 8 10 9 9 8 12 8 28 18 10 9 6 5v2l-5-1-28-13-16-9-11-8-30-18-24-13-16-9-20-11-11-8 1-4 5-5z" fill="#1B3C52"/>
<path transform="translate(1017,1549)" d="m0 0h8l9 3 9 8 5 10 1 10-4 10-4 6-8 6-5 2-8 1-9-3-8-7-5-8-2-11 2-9 6-9 7-6z" fill="#1B384C"/>
<path transform="translate(430,892)" d="m0 0 10 3 33 16 13 8 20 12 28 14 5 5-2 6-4 7-7-1-22-12-14-8-20-11-17-11-17-8-10-9v-8z" fill="#1B3A4F"/>
<path transform="translate(982,802)" d="m0 0 5 1 16 9 4 7 1 16 1 44v25h-1l-1-8-1-4-2-1-2-6-3-2-11 1-2 3-2 18h-1l-1-15z" fill="#1B7BB1"/>
<path transform="translate(451,638)" d="m0 0h10l12 6 6 7 2 5v13l-4 8-5 6-12 6h-8l-10-6-7-11-1-4v-9l4-10 6-7z" fill="#1B384D"/>
<path transform="translate(678,751)" d="m0 0h10l10 4 6 7 3 6v12l-4 8-7 7-10 4h-10l-8-5-6-7-2-5v-14l5-9 7-6z" fill="#1B384D"/>
<path transform="translate(1316,976)" d="m0 0 8 1 10 5 6 6-1 5-5 7-2 6v28l1 16 7 10 1 4-9 10-7 5h-5l-4-5-1-12 1-9v-17l-1-30v-26z" fill="#1B3A4F"/>
<path transform="translate(887,377)" d="m0 0h6l4 5 1 5-5 6-59 31-15 9-19 11-6 3 1-7 2-4-3-7 14-8 17-10 32-17 18-10 9-6z" fill="#1A3B51"/>
<path transform="translate(1106,713)" d="m0 0 5 1 18 10 9 6-2 4-10 7-48 28-7 4h-3l-1-7 2-7 4-7 7-8 7-9 3-3h3l2-5 5-7 5-2z" fill="#0A5D8B"/>
<path transform="translate(646,1371)" d="m0 0 5 5 4 1h2l2 9-1 9 2 28 9 6 5 6 2 9-3 8-5 5-5 3h-12l-8-5-5-8-1-3v-7l3-6 8-7 2-2-3-13-2-22v-15z" fill="#1B394E"/>
<path transform="translate(916,762)" d="m0 0 5 2 12 7 1 67-1 16h-6l-3 1-1 8-4 1v2l-2 1-1 12h-1v-64z" fill="#1C7BB1"/>
<path transform="translate(949,875)" d="m0 0 4 1 9 3 5-1v71l-1 19-7-1-9-4-1-1-1-32v-54z" fill="#1A7BB0"/>
<path transform="translate(1539,715)" d="m0 0h16l15 5 11 6 7 6-1 5-8 7-19 11-3 1v2l-5 2-2 6-1 39v26l1 8h-5l-2-12 1-16 1-30 1-10 1-12 2-4-2-3-1-13-2-11-1-8h-3l-2-4z" fill="#1A6D9A"/>
<path transform="translate(1366,750)" d="m0 0 10 2 8 5 5 10v12l-4 10-6 5-5 2h-9l-10-4-6-7-2-5v-10l4-10 4-5 7-4z" fill="#1B384C"/>
<path transform="translate(702,559)" d="m0 0h7l7 4 7 8 5 12 1 4v8l-6 8-8 3h-10l-8-3-6-7-4-10v-9l4-9 5-6z" fill="#1B394F"/>
<path transform="translate(958,1496)" d="m0 0 9 2 5 3 7 13 2 8v23l-4 8-7 6-10-1-9-8-1-4 5-19 2-30z" fill="#1B384C"/>
<path transform="translate(1601,848)" d="m0 0 9 1 7 4 5 6 2 5v11l-5 10-8 5-2 1h-10l-9-6-6-10v-10l4-8 5-5 4-3z" fill="#1B384D"/>
<path transform="translate(1082,854)" d="m0 0h2l2 6 3 26 8 27 3 16v21 2l3-1 1 6-3 4-14 6h-3l-2-10z" fill="#1B384D"/>
<path transform="translate(1362,1009)" d="m0 0h7l9 3 6 7 3 8v7l-3 6-8 7-7 3h-10l-8-6-4-5-1-11 2-8 4-6 6-4z" fill="#1B384D"/>
<path transform="translate(1083,347)" d="m0 0 5 2 19 9 13 7-1 3-12 6-10 6-13 8-28 15h-2l2-4 4-5 7-6 4-8 2-11 3-5 5-8z" fill="#1D709E"/>
<path transform="translate(1436,753)" d="m0 0h14l6 3 6 8 2 11-3 7-6 8-5 2h-8l-8-3-7-6-3-8 1-11 6-8z" fill="#1B384D"/>
<path transform="translate(887,1503)" d="m0 0 9 1 9 7 5 9v9l-4 9-4 5-2 1h-12l-6-3-6-7-2-6v-12l4-8 6-4z" fill="#1B384D"/>
<path transform="translate(1370,626)" d="m0 0 1 3 13-2 5 1 18 2 1 1 10 1v4l-1 4 1 5-1 2h-2l-1 4-4 8h-2l-1 3-5-2-5-3-12-6-10-6-13-7 1-5 5-5z" fill="#1D709D"/>
<path transform="translate(816,754)" d="m0 0 5 1 31 16 22 12 20 10v12l-7-1-16-7-19-10-32-16v-3l-4-1-1-5-1-7z" fill="#1A3A50"/>
<path transform="translate(1595,1121)" d="m0 0h7l8 3 5 6 1 2-1 9-4 6-6 5-9 3h-5l-5-4-4-6 2 10 4 1v3l-5 3h-2l-6-11-1-2-5-2-4-4 11-8 5-2 4-5 8-6z" fill="#1B394E"/>
<path transform="translate(956,1336)" d="m0 0 6 1 11 6 1 2v38l-2 14-11 10-4 1-1-2-1-19z" fill="#1B384C"/>
<path transform="translate(1599,917)" d="m0 0 11 1 8 6 4 8v7l-3 8-4 5-6 4h-9l-7-4-5-6-3-7v-7l5-10 6-4z" fill="#1B394E"/>
<path transform="translate(1171,943)" d="m0 0 2 2v44l-2 6-5 1-6-4-12-11-10-8 2-4 10-10 5-7 10-6z" fill="#1B3A50"/>
<path transform="translate(833,733)" d="m0 0 6 2 25 13 19 10 12 6-1 14-7-1-23-11-44-24v-2h3l1-4 3-1h3 2z" fill="#0B5E8C"/>
<path transform="translate(681,822)" d="m0 0h9l8 4 5 8 2 5v6l-6 10-4 3-9 1-9-2-8-7-2-6v-8l3-7 7-6z" fill="#1B394E"/>
<path transform="translate(800,1714)" d="m0 0h13v2h2v7l-1 3h-3v2h2v2h12l9 2 10-1 3 3-9 3-25-2-51-6-13-3-3-1 2-4 11-3 24-3z" fill="#2295D5"/>
<path transform="translate(619,471)" d="m0 0 9 2 6 4 5 10 1 5v9l-3 7-4 5-7 1-7-3-5-4-7-13-1-10 4-8 5-4z" fill="#1B3A50"/>
<path transform="translate(616,1277)" d="m0 0 8 1 14 9 12 9 2 3v10l-4 6-6 2-10-4-13-10-10-6-3-4v-6l2-4h2l1-3z" fill="#1B394F"/>
<path transform="translate(419,1057)" d="m0 0 9 1 17 9 20 11 9 7-1 5-8 5-5-1-20-11-20-6-6-4-2-3 1-6 3-5z" fill="#1B3A50"/>
<path transform="translate(467,1232)" d="m0 0 8 2 7 5 5 9v8l-6 9-6 4h-10l-7-4-6-8-2-6 1-7 6-8z" fill="#1B384D"/>
<path transform="translate(1543,873)" d="m0 0 9 1 8 6 5 9-1 7-7 10-5 3h-10l-7-4-5-8-1-3v-7l4-7 7-6z" fill="#1B394D"/>
<path transform="translate(1347,578)" d="m0 0 9 2 6 5 2 4v12l-4 6-7 6-5 2-9-1-7-6-2-12 3-9 5-6z" fill="#1B384D"/>
<path transform="translate(786,895)" d="m0 0 8 1 6 3 1 1v67h-1l-1-15-3 1-5-1-4 5-2 4h-1v-41l1-24z" fill="#1B7AB0"/>
<path transform="translate(1084,802)" d="m0 0 5 1 4 4-1 7-1 3-1 24 1 15 4 15 3 19 2 10 2 1v36l1 1v13l-2 1-1 7h-1l-1-6 1-8v-17l-5-23-6-19-3-26-2-6v-49z" fill="#0A3758"/>
<path transform="translate(1432,1401)" d="m0 0h10l6 3 6 9 1 6-3 8-7 8-3 1h-10l-6-4-6-9v-7l5-10 5-4z" fill="#1B384D"/>
<path transform="translate(645,540)" d="m0 0 9 1 6 4 5 9v9l-6 8-3 3-3 1h-10l-6-3-5-7-1-3v-8l4-8 6-5z" fill="#1B394E"/>
<path transform="translate(1591,1200)" d="m0 0 8 1 7 6 3 5 1 8-5 9-8 6-7 1-8-3-5-5-2-5v-7l4-8 9-7z" fill="#1B394E"/>
<path transform="translate(1429,1270)" d="m0 0h7l8 4 15 11 6 4 1 3-15-1-8 8-4 2h-11l-8-6-4-8 1-7 5-6z" fill="#1B394E"/>
<path transform="translate(1090,1543)" d="m0 0 8 1 6 4 4 8v8l-4 8-6 5-5 2-9-2-7-6-2-4v-8l3-7 10-8z" fill="#1B384D"/>
<path transform="translate(486,1128)" d="m0 0 11 1 8 3 8 7 6 12 1 4v8l-2 9-8 11-12 6-5 1-13-1-8-4-9-8-5-11v-11l5-12 3-4 2-4 8-5zm2 7-12 5-7 5-1 4h-2l-2 7v14l2 5h2l1 3 6 4 3 3 5 2 14 1 13-10 3-4 2-6v-14l-2-8-5-2-1-3-4-3-10-3z" fill="#1A6C99"/>
<path transform="translate(816,917)" d="m0 0h1l1 24 2-11 2-4 5 3 3 5v9l-1 8v19l-2 14-1 1v14l4 3-1 17-7-2-2-10-1-22-2-9h-1z" fill="#1B79AE"/>
<path transform="translate(878,1098)" d="m0 0h8l8 2 6 4 2 4-12 12 1 11 2 13v16l-5-1-8-7-1-2-1-25z" fill="#0B5D8B"/>
<path transform="translate(882,950)" d="m0 0 6 2 12 8 9 7-1 4-8 11-11 8-9 5-1-1-1-22v-13l3-8z" fill="#1E72A0"/>
<path transform="translate(597,1371)" d="m0 0h7l6 3 6 8 1 3v7l-4 8-5 4-3 1h-7l-6-3-4-5-3-10 3-8 6-7z" fill="#1B394E"/>
<path transform="translate(984,954)" d="m0 0h2l1 5 7-2 3-1 11 2 2-1 1 4 1 34-6-2-15-9-7-5-1-7z" fill="#1A3A50"/>
<path transform="translate(1364,1370)" d="m0 0 8 1 6 5 3 6v9l-3 6-6 5-9 1-8-4-4-5-2-4v-7l4-7 6-5z" fill="#1B394E"/>
<path transform="translate(949,988)" d="m0 0 5 1 24 13 16 8-1 3-18 10-11 6-5-2v-5l-1-5-2-5 2-8-4-6-2-2z" fill="#0A5D8B"/>
<path transform="translate(1060,1349)" d="m0 0h5l4 10v13l-2 14-3 2-10-5-9-7-6-7-1-4 5-6 13-8z" fill="#1B394E"/>
<path transform="translate(845,1453)" d="m0 0 4 2 7 8 1 9-2 8-4 5-4 2h-9l-5-3-5-6-2-6 1-7 6-7z" fill="#1B384D"/>
<path transform="translate(1410,1047)" d="m0 0 9 2 7 4 9 11-3 5-9 6-3 1h-7l-11-7-8-6 1-5 7-7z" fill="#1B394E"/>
<path transform="translate(1124,1117)" d="m0 0h7l9 5 5 6 1 4-4 8-6 7-5 1-15-9-7-6 1-5 6-7z" fill="#1B394E"/>
<path transform="translate(834,406)" d="m0 0h1l1 8 6 2 4-1 1 2-23 13-22 13-8 4 1-7 2-4-3-7 14-8 17-10z" fill="#0B5E8C"/>
<path transform="translate(1443,1015)" d="m0 0h10l5 5 3 8v8l-4 9-4 4-9-2-8-5-3-6v-10l4-6z" fill="#1B394E"/>
<path transform="translate(1475,579)" d="m0 0h7l7 3 5 6 1 3v10l-5 6-9 4-7-1-6-8-3-8 1-7 3-5z" fill="#1B3A4F"/>
<path transform="translate(740,682)" d="m0 0 9 1 19 11 15 10v3l-5 3-1 2h-2l1 5-6-2-27-15-5-3v-9z" fill="#1C7BB0"/>
<path transform="translate(1132,1528)" d="m0 0h5l9 8 4 8-1 9-3 6-5 5-8-1-6-4-3-3-2-6v-8l4-7 4-6z" fill="#1B3A4F"/>
<path transform="translate(1250,1715)" d="m0 0h12l23 3 14 3 9 1-1 2-17 3-28 4-19 2h-9v-2l7-5-1-4 3-1v-3l7-1z" fill="#2597D6"/>
<path transform="translate(792,430)" d="m0 0h3l3 7h-2l1 4-1 3h-2v3l-15 8-19 12h-2l1-9-4-2h-5l1-4 19-11 16-8z" fill="#1A3A4F"/>
<path transform="translate(984,931)" d="m0 0h3v2l5-2h10l3 1v2l5 2v21l-3 2-10-2-5 2h-5l-1-5h-2v18h-1v-31z" fill="#0A5C8A"/>
<path transform="translate(736,1014)" d="m0 0 2 1v53l-2 10-9-3-5-3v-7l4-9 4-7 1-5h-2l-2-11-3-9 4-5z" fill="#1F7DB1"/>
<path transform="translate(1496,1120)" d="m0 0h13l6 3 4 7-2 7-6 8-4 3-4 1h-7l-5-3-1-2v-15l4-8z" fill="#1B394E"/>
<path transform="translate(954,926)" d="m0 0h5l7 9v33l-7-1-9-4-1-1v-35z" fill="#1D709D"/>
<path transform="translate(831,1063)" d="m0 0h1l1 9v53l-5-1-12-6-1-1v-12l2-25h1l1 17h2l1-2 4-5 2-5 2-19z" fill="#0C608F"/>
<path transform="translate(914,1120)" d="m0 0h7l7 3 8 8-1 3-10 6-9 7-5 2-5-4-4-7-1-5 4-7z" fill="#1B3A50"/>
<path transform="translate(1429,1350)" d="m0 0 7 1 6 4 3 5v7l-7 10-4 2h-6l-8-5-3-6-1-5 3-7 7-5z" fill="#1B394E"/>
<path transform="translate(1193,1500)" d="m0 0 3 1 6 10 4 5 1 3v8l-5 7-4 2h-10l-5-4-1-3v-10l3-6 6-7z" fill="#1B394E"/>
<path transform="translate(1124,787)" d="m0 0h8l3 1v29l-5 6-5 3-3-1-2-5-4-22-1-6 2-3 6-1z" fill="#0A3758"/>
<path transform="translate(981,1351)" d="m0 0 5 1 16 7 6 5 1 4-6 8-4 3-9 3h-5l-4-6z" fill="#1B394E"/>
<path transform="translate(1362,1325)" d="m0 0 6 1 7 9 3 6-1 5-7 9-6 1-8-5-6-7 1-8 7-9z" fill="#1B394E"/>
<path transform="translate(1363,1426)" d="m0 0 8 2 8 7 1 2-1 9-8 8-6 1-6-3-4-4-1-3v-10l3-5 3-3z" fill="#1B394E"/>
<path transform="translate(603,1328)" d="m0 0 9 1 7 6 2 9-3 7-4 4-2 1h-7l-5-3-5-10v-7l6-7z" fill="#1B3A4F"/>
<path transform="translate(1061,1511)" d="m0 0 5 1 2 3 1 11-2 8-6 5-8 1-5-4-5-10 2-6 9-7z" fill="#1B3A4F"/>
<path transform="translate(419,925)" d="m0 0 7 1 12 10 3 5-2 6-4 3-13-1-6-3-5-6-1-5 3-6z" fill="#1B3B50"/>
<path transform="translate(1543,926)" d="m0 0h7l5 3 5 6v10l-4 4-10 2-9-3-3-7 1-9 6-5z" fill="#1A394F"/>
<path transform="translate(421,969)" d="m0 0 6 1 4 2 3 9v2h7v4 5 3l-3 1-3-3-20-3-5-5-1-5 2-5 5-4z" fill="#0C5D8B"/>
<path transform="translate(1358,1285)" d="m0 0 8 1 8 7 3 3-1 4-7 10-1 1-9-1-7-6-3-6 2-6 4-5z" fill="#1B394F"/>
<path transform="translate(1253,403)" d="m0 0 8 2 7 10-1 7-6 9-3 3-7-2-4-4-1-3v-11l5-10z" fill="#1A394F"/>
<path transform="translate(736,746)" d="m0 0 8 1 33 15 6 3v5l-3 1h-3l-1 3-2-2h-3l-1-2h-3l-1-4-6 1-4-3-5-1v-3h-10l-3-6-3 1z" fill="#1A3A50"/>
<path transform="translate(1062,1708)" d="m0 0h21l40 1 4 2-15 1h-15l-3 1-9-1-2 1-17-1-9 1-26-1h-21l-10 1-12-1h-17l-9-1-1-2z" fill="#2480B3"/>
<path transform="translate(1050,1122)" d="m0 0 10 5-3 3-18 13-16 10-14 7-6-1-2-9 5-3 12 1 2-4 8-1 6-5 5-1 2 1 1-5 2-6 4-2z" fill="#0C3A5B"/>
<path transform="translate(1535,624)" d="m0 0h8l6 5 2 4v8l-4 5-8 2-9-2-4-5v-7l4-7z" fill="#1A3A50"/>
<path transform="translate(579,652)" d="m0 0h8l7 5 2 4-1 9-7 6-5 1-7-3-4-5-1-7 6-9z" fill="#1B3B51"/>
<path transform="translate(483,887)" d="m0 0 11 1 14 7 8 7 5 3v3l-8 2h-12l-10-8-7-10z" fill="#1A3D54"/>
<path transform="translate(708,1031)" d="m0 0 8 1 7 4 1 4-8 10-7 6-7-3-6-6v-6l4-6z" fill="#1B3C53"/>
<path transform="translate(1134,761)" d="m0 0h2v28l-10-1-9 2-2 2v-21l18-9z" fill="#1A3A50"/>
<path transform="translate(1539,715)" d="m0 0h11v1h-6l4 7 2 1 4 12v12l-2 7-3 5-1 34v45h-3l-2-12 1-16 1-30 1-10 1-12 2-4-2-3-1-13-2-11-1-8h-3l-2-4z" fill="#1A7AAF"/>
<path transform="translate(1130,381)" d="m0 0 1 4-1 82h-1l-1-71-9 7-9 3h-7l-8-3v-2l26-14z" fill="#1B3A50"/>
<path transform="translate(1283,427)" d="m0 0h11l6 4 2 5-1 8-6 6h-8l-6-4-3-6v-8z" fill="#1B3A50"/>
<path transform="translate(723,1431)" d="m0 0 5 1 3 5 4 13v6l-6 8-6-1-7-9v-8l4-11z" fill="#1B3C53"/>
<path transform="translate(1162,445)" d="m0 0 9 1 5 4 1 2v8l-5 5-4 3h-6l-6-4-3-6v-7l6-5z" fill="#1B394F"/>
<path transform="translate(1397,1312)" d="m0 0h10l6 5 2 5-1 6-4 5-4 2-8-1-6-5-1-7 3-6z" fill="#1B3A50"/>
<path transform="translate(722,861)" d="m0 0 7 1 8 5-1 13-2 8-6-2-11-7-2-2 1-9 4-6z" fill="#1E719F"/>
<path transform="translate(1162,1402)" d="m0 0 7 1 6 5 2 4-1 7-5 5-3 2-7-1-5-4-2-4 1-7 4-6z" fill="#1B3B52"/>
<path transform="translate(1305,495)" d="m0 0h11l7 3 4 5-1 7-5 7-5-1-8-6-5-5-3-4z" fill="#1B3B51"/>
<path transform="translate(882,448)" d="m0 0h11l6 7v5l-6 7-4 2h-6l-5-5-2-6 3-8z" fill="#1B3A50"/>
<path transform="translate(1320,426)" d="m0 0h9l4 2 2 3v9l-3 7-1 1h-7l-6-4-3-4v-9l2-4z" fill="#1B394E"/>
<path transform="translate(646,1371)" d="m0 0 5 5 4 1h2l2 9-1 9v12l-5-1-4-3-1 6h-1l-2-22v-15z" fill="#1F75A5"/>
<path transform="translate(859,991)" d="m0 0 5 1v21l-1 26-2 4-2-2-2 1v-8h-3l-1-4 2-14 2-7v-11z" fill="#1D7CB1"/>
<path transform="translate(1321,864)" d="m0 0 4 1 23 12 20 11 1 2-10-2-1-1h-2l-1 2-6-2h-9l-4-5-3-2-2-5-9-3z" fill="#1B3A50"/>
<path transform="translate(1275,1717)" d="m0 0 10 1 14 3 9 1-1 2-17 3-12 2h-12l-1-3-6-2v2l-2-1v-4h6l5-2 1-1z" fill="#2576A2"/>
<path transform="translate(731,1478)" d="m0 0 5 1 4 6 1 3v8l-2 4-6 1-8-4-3-5v-8l6-5z" fill="#2174A1"/>
<path transform="translate(1193,375)" d="m0 0 6 1 6 5 2 5v6l-4 3h-11l-5-5-2-4 1-5 5-5z" fill="#1B3A4F"/>
<path transform="translate(737,753)" d="m0 0 2 1 2 5h8l2 1v3h5l3 1 3 3 1-2 3 1 2 4h3v2l5-1v2l1-2 5-1 2-4 4 3-3 2 4 2 3 6-1 3h3l1 2h3v4l-6-2-42-21-14-6-2-4h3z" fill="#0B5D8B"/>
<path transform="translate(1e3 813)" d="m0 0 3 3 1 3 1 16v18l-1-3h-3l-7-15-2-8 2-4v-3l-3-1v-2z" fill="#1791D4"/>
<path transform="translate(1361,636)" d="m0 0 1 2 6 2 16 9 10 6 7 3 3 3-1 3-5 1-12-6-18-11-9-6 1-4z" fill="#1891D4"/>
<path transform="translate(1160,359)" d="m0 0h6l6 4 3 3-2 6-7 7-7-1-5-5-2-5 4-6z" fill="#1A3A50"/>
<path transform="translate(881,345)" d="m0 0 6 2 5 5-1 5-6 5-9 3v-2h-2v-2h-2v-2l-3-1-1-3-1-2 4-4z" fill="#1A394F"/>
<path transform="translate(729,1052)" d="m0 0h5v4h4v12l-2 10-9-3-5-3v-7l4-9z" fill="#1B3D55"/>
<path transform="translate(1595,687)" d="m0 0h7l6 5 1 4-3 7-4 4h-7l-6-7v-7l4-5z" fill="#1A3A4F"/>
<path transform="translate(749,453)" d="m0 0h2v2h5l3 1 1 6-2 6-4 3-5-1v-2l-4-1-6 3-7-2v2h-2l2-6z" fill="#0B395A"/>
<path transform="translate(1453,1074)" d="m0 0h7l4 4-1 7-12 6-7 1-5-5 4-7 7-5z" fill="#1B3C52"/>
<path transform="translate(629,637)" d="m0 0 7 1 16 8 17 8-2 5-4 1-11-4-8-4v-2l-8-2-1-4-4-1z" fill="#1B7AAF"/>
<path transform="translate(1101,780)" d="m0 0h3v66h-1l-1-28-1-7v-17l-4-2h-2l-1 6h-4l-3-3h-3l-1-5 17-9z" fill="#0F4C72"/>
<path transform="translate(1216,394)" d="m0 0 12 2 5 3 1 7-5 5h-9l-5-4-4-7 1-4z" fill="#1B384D"/>
<path transform="translate(880,1098)" d="m0 0 12 1 8 5 2 4-13 13-4-4-1-8-1-3h-2z" fill="#1A3A50"/>
<path transform="translate(1501,739)" d="m0 0h6l10 6 24 12-4 2-1 3-5-1-10-6-11-6-9-5-1-4z" fill="#FDFDFD"/>
<path transform="translate(1492,688)" d="m0 0h6l4 4 1 5-4 7-2 2h-6l-6-4-1-2v-7l5-4z" fill="#1B3C52"/>
<path transform="translate(1579,1134)" d="m0 0h2l1 9 1 7 1 5 4 1v3l-5 3h-2l-6-11-1-2-5-2-4-4 11-8z" fill="#1D71A0"/>
<path transform="translate(432,865)" d="m0 0h7l8 4 1 3-3 5-8 2h-11l-1-5 4-7z" fill="#1E73A1"/>
<path transform="translate(1224,1472)" d="m0 0h9l4 2 1 2v9l-2 2-9 1-4-1-2-4v-8z" fill="#1A3E55"/>
<path transform="translate(424,970)" d="m0 0 6 1 3 6v7l-5 1v4l-7-2-5-3v-2l4 1-1-4h3v-5l-4-1z" fill="#1A3A50"/>
<path transform="translate(1547,769)" d="m0 0h1v70h-3l-2-12 1-16 1-30z" fill="#1C74A4"/>
<path transform="translate(878,1098)" d="m0 0h1l1 21 4 8 2 3v9l-1 7-4 2-2 2-1-25z" fill="#1D73A3"/>
<path transform="translate(1155,528)" d="m0 0 7 1 6 4 2 3v5l-3 1-9-2-7-4 3-1-1-6z" fill="#1F719F"/>
<path transform="translate(882,846)" d="m0 0 6 2 7 4v12l-5-1-6-3-1-7v-4z" fill="#0C3A5A"/>
<path transform="translate(737,753)" d="m0 0 2 1 2 5h8l2 1v3h5l3 1 3 3 1-2 3 1 2 4h3v2l5-1-1 3-5 1-16-8-11-5-8-4-1-3h3z" fill="#0C5E8C"/>
<path transform="translate(1192,554)" d="m0 0 9 1 14 7 2 5-2 1-12-4-10-6z" fill="#1C74A5"/>
<path transform="translate(1363,633)" d="m0 0 1 2 5 2 10 6 11 7 9 4 6 3 1 4-4-1-5-3-12-6-10-6-13-7z" fill="#1B7AAF"/>
<path transform="translate(555,550)" d="m0 0 10 3 1 4h2l1 3-5 1-1 2-8-2-3-5v-5z" fill="#0A3859"/>
<path transform="translate(786,895)" d="m0 0 8 1 6 3v6h-14l-1-9z" fill="#1D709E"/>
<path transform="translate(736,1014)" d="m0 0 2 1v11l-9 1h-2l-1 3-2-6 4-5z" fill="#1D72A0"/>
<path transform="translate(1359,973)" d="m0 0 7 1 8 4 2 3 5 3 1 4-6-2-18-10-1-2z" fill="#1D72A1"/>
<path transform="translate(867,351)" d="m0 0 2 3 1 4 2 1v2h2v2h2l-1 3h-4v-2l-4 1v-4l-5-1-2-1 1-4z" fill="#0B5D8C"/>
<path transform="translate(505,1166)" d="m0 0 2 1v5h-2v6l-4 1-1 2-5 1-1-3 3-5 4-3h2l1-4z" fill="#1791D4"/>
<path transform="translate(890,821)" d="m0 0 4 1 1 1v12l-7-2-2-3z" fill="#0E3C5C"/>
<path transform="translate(785,1090)" d="m0 0 2 4 1 7 1-5 6 1 2 1 1 6h-10l-3-2z" fill="#0B5D8B"/>
<path transform="translate(683,619)" d="m0 0 5 1 13 8 1 2-11-1-3-4-4-1z" fill="#1A4059"/>
<path transform="translate(506,1180)" d="m0 0m-1 1m4-1h2l-1 3-12 6-5 1-13-1-5-2 3-1 6 1h13l7-5h5z" fill="#116391"/>
<path transform="translate(781,747)" d="m0 0 10 2v2l3 1-1 4 3 1-2 1-16-8 3-1z" fill="#1D719F"/>
<path transform="translate(1035,531)" d="m0 0 1 3h8l6-3 2 1-10 6-7 5h-1v-11z" fill="#1B3D54"/>
<path transform="translate(1476,1098)" d="m0 0 4 1v5l-1 1h-8l-4-2v-2z" fill="#1B415A"/>
<path transform="translate(762,765)" d="m0 0 4 1 2 4h3v2l5-1-1 3-5 1-13-7 3-2 2 1z" fill="#0B608F"/>
<path transform="translate(647,1374)" d="m0 0 4 2 4 1h2l2 9-2 4v-6l-3 1-3-2-1-3-3-3z" fill="#1E92D2"/>
<path transform="translate(891,1145)" d="m0 0 2 3v12l-5-1-1-4 2-7z" fill="#1A3C52"/>
<path transform="translate(906,1710)" d="m0 0h30l-2 2-6 1h-13l-9-1z" fill="#1A7DB4"/>
<path transform="translate(1166,1710)" d="m0 0h11l10 1 1 2-5 1-15-1-5-1z" fill="#2781B3"/>
<path transform="translate(1141,1720)" d="m0 0 6 1-4 4-5 2-4-3v-3z" fill="#1E709D"/>
<path transform="translate(1020,1150)" d="m0 0h6l-3 3-14 7-2-1 4-4 6-3h3z" fill="#1A3E55"/>
<path transform="translate(661,609)" d="m0 0 9 3 5 3-1 2-8-1-2-3-5-1v-2z" fill="#1A4059"/>
<path transform="translate(1291,1720)" d="m0 0 17 2-1 2-15 2v-2l-2-2z" fill="#45A5DB"/>
<path transform="translate(736,1047)" d="m0 0 2 2v7h-4l-1-3-4-2 2-3z" fill="#196B98"/>
<path transform="translate(754,1719)" d="m0 0h4l1 4h-2l-4 2h-7l2-4z" fill="#2C7CA8"/>
<path transform="translate(791,466)" d="m0 0 5 1v2l2 1-3 3-6-1v-4z" fill="#0C5D8B"/>
<path transform="translate(1167,1735)" d="m0 0h11l4 2-3 1h-11l-6-1v-1z" fill="#45A6DC"/>
<path transform="translate(1144,1710)" d="m0 0h17v2h-7l-7 1-3-1z" fill="#1B7AAF"/>
<path transform="translate(766,418)" d="m0 0h4v3l2 1-2 2v-2h-2l-1 2-3 1-1-3z" fill="#0A5C8A"/>
<path transform="translate(946,1738)" d="m0 0h5l3 1 6 1v1h-21v-1h7z" fill="#5CB1E0"/>
<path transform="translate(1022,665)" d="m0 0h5v4h-7l-5 2 4-4z" fill="#1C6F9C"/>
<path transform="translate(1209,560)" d="m0 0 4 1 4 4-1 3-7-2 4-1z" fill="#1E709D"/>
<path transform="translate(1359,884)" d="m0 0 6 2 4 4-10-2z" fill="#1A4763"/>
<path transform="translate(953,1184)" d="m0 0 5 1-2 7-4-2 1-2-2-2z" fill="#1B77AA"/>
<path transform="translate(734,777)" d="m0 0 7 6-4 2-4-2z" fill="#0F5D89"/>
<path transform="translate(737,753)" d="m0 0 2 1 2 7-6-3-1-3h3z" fill="#0C6291"/>
<path transform="translate(1207,560)" d="m0 0 5 2 1 3-7-1-1-3z" fill="#1A7BB1"/>
<path transform="translate(727,1043)" d="m0 0 2 2-6 7v-3z" fill="#3C9CD0"/>
<path transform="translate(600,1043)" d="m0 0h4v2z" fill="#1C75A6"/>
<path transform="translate(721,1052)" d="m0 0" fill="#1791D4"/>
<path transform="translate(720,1054)" d="m0 0" fill="#1791D4"/>
</svg>
